<svg width="100" height="50" viewBox="0 0 100 50" fill="none" xmlns="http://www.w3.org/2000/svg">
<g id="hero" clip-path="url(#clip0)">
<g id="boat">
<path id="Vector" d="M47.977 26.8177L41 25.3748L43.7338 30.0101L52.1088 30.1482L55 25.6058L47.977 26.8177Z" fill="#CCCCCC"/>
<path id="Vector 2" d="M47.9942 24.5L45.0542 27.4516L48.2663 29.1408L50.5286 27.3619L47.9942 24.5Z" fill="#EAEAEA"/>
<path id="Vector 3" d="M47.6252 28.8483L48.0119 24.7822L48.2596 28.8586L47.6252 28.8483Z" fill="#C0C0C0"/>
<path id="Vector 4" d="M52.1088 30.1482L43.7338 30.0101L43.7743 27.6402L52.1498 27.7789L52.1088 30.1482Z" fill="#D9D9D9"/>
<path id="Vector 5" d="M41 25.3748L47.962 27.7098L43.7338 30.0101L41 25.3748Z" fill="white"/>
<path id="Vector 6" d="M55 25.6058L47.962 27.7098L52.1088 30.1482L55 25.6058Z" fill="white"/>
</g>
<path id="Vector 8" d="M0 44.5V28.5C13.6 22.9 31.3333 26 35 27.5C42.6667 29.8333 54.6 32 69 28C83.4 24 95.6667 23 100 23V44.5H0Z" fill="#4CD6D0" stroke="black" stroke-opacity="0.01"/>
<path id="Vector 7" d="M100 45V30.5807C99.3333 29.379 94.2 29.2417 79 38.3053C59 47.5749 52.5 42.4251 35.5 34.7005C21.9 28.5207 6.16667 31.7823 0 34.1855V45H100Z" fill="white"/>
</g>
<defs>
<clipPath id="clip0">
<rect width="100" height="50" fill="white"/>
</clipPath>
</defs>
</svg>
